<svg xmlns="http://www.w3.org/2000/svg" viewBox="0 0 64 64">
  <defs>
    <linearGradient id="bg" x1="0" y1="0" x2="1" y2="1">
      <stop offset="0" stop-color="#3987e5"/>
      <stop offset="1" stop-color="#1c5cab"/>
    </linearGradient>
  </defs>

  <!-- tile -->
  <rect width="64" height="64" rx="14" fill="url(#bg)"/>

  <!-- server rack slats -->
  <rect x="11" y="13" width="42" height="10" rx="3" fill="#ffffff"/>
  <rect x="11" y="27" width="42" height="10" rx="3" fill="#ffffff"/>
  <rect x="11" y="41" width="42" height="10" rx="3" fill="#ffffff"/>

  <!-- status LEDs -->
  <circle cx="17.5" cy="18" r="2.4" fill="#1c5cab"/>
  <circle cx="17.5" cy="32" r="2.4" fill="#1c5cab"/>
  <circle cx="17.5" cy="46" r="2.4" fill="#1c5cab"/>

  <!-- vent slots -->
  <rect x="34" y="16.5" width="14" height="3" rx="1.5" fill="#1c5cab" opacity="0.45"/>
  <rect x="34" y="30.5" width="14" height="3" rx="1.5" fill="#1c5cab" opacity="0.45"/>

  <!-- maintenance badge -->
  <circle cx="45.5" cy="45" r="14" fill="#0ca30c" stroke="#ffffff" stroke-width="3"/>
  <g transform="translate(36.5 36) scale(0.75)" fill="none" stroke="#ffffff" stroke-width="2.8" stroke-linecap="round" stroke-linejoin="round">
    <path d="M14.7 6.3a1 1 0 0 0 0 1.4l1.6 1.6a1 1 0 0 0 1.4 0l3.77-3.77a6 6 0 0 1-7.94 7.94l-6.91 6.91a2.12 2.12 0 0 1-3-3l6.91-6.91a6 6 0 0 1 7.94-7.94l-3.76 3.76z"/>
  </g>
</svg>
